<?xml version="1.0" standalone="no"?>
<!DOCTYPE svg PUBLIC "-//W3C//DTD SVG 20010904//EN"
 "http://www.w3.org/TR/2001/REC-SVG-20010904/DTD/svg10.dtd">
<svg version="1.0" xmlns="http://www.w3.org/2000/svg"
 width="208.000000pt" height="208.000000pt" viewBox="0 0 208.000000 208.000000"
 preserveAspectRatio="xMidYMid meet">
<metadata>
Created by potrace 1.14, written by Peter Selinger 2001-2017
</metadata>
<g transform="translate(0.000000,208.000000) scale(0.100000,-0.100000)"
fill="#000000" stroke="none">
<path d="M845 1993 c-132 -18 -309 -87 -423 -165 -60 -40 -199 -179 -239 -238
-115 -170 -171 -351 -171 -549 0 -53 4 -118 9 -146 5 -27 12 -62 14 -78 9 -50
64 -188 100 -254 144 -257 429 -447 720 -479 115 -12 324 -10 410 4 101 17
210 53 300 100 39 20 72 39 75 42 3 3 23 18 46 33 133 90 272 276 331 442 44
124 55 182 57 314 9 449 -287 837 -724 951 -71 19 -116 23 -280 25 -107 1
-208 0 -225 -2z"/>
</g>
</svg>
